<svg width="23" height="23" viewBox="0 0 23 23" fill="none" xmlns="http://www.w3.org/2000/svg">
<path d="M11.0863 21.1727C8.41128 21.1727 5.84578 20.11 3.95422 18.2185C2.06266 16.3269 1 13.7614 1 11.0863C1 8.41128 2.06266 5.84578 3.95422 3.95422C5.84578 2.06266 8.41128 1 11.0863 1C13.7614 1 16.3269 2.06266 18.2185 3.95422C20.11 5.84578 21.1727 8.41128 21.1727 11.0863C21.1727 13.7614 20.11 16.3269 18.2185 18.2185C16.3269 20.11 13.7614 21.1727 11.0863 21.1727V21.1727Z" stroke="white" stroke-width="1.68106" stroke-linecap="round" stroke-linejoin="round"/>
<path d="M11.0861 12.4874V12.2072C11.0861 11.2916 11.6521 10.7951 12.2192 10.4141C12.7728 10.0409 13.3275 9.55448 13.3275 8.65791C13.3275 8.06345 13.0914 7.49334 12.671 7.073C12.2507 6.65265 11.6806 6.4165 11.0861 6.4165C10.4917 6.4165 9.92157 6.65265 9.50122 7.073C9.08087 7.49334 8.84473 8.06345 8.84473 8.65791" stroke="white" stroke-width="1.68106" stroke-linecap="round" stroke-linejoin="round"/>
</svg>
